<svg width="485" height="372" viewBox="0 0 485 372" fill="none" xmlns="http://www.w3.org/2000/svg">
<rect x="145" y="354.203" width="194" height="15" rx="7.5" stroke="#333333" stroke-width="1.5" stroke-dasharray="3 3"/>
<line x1="288.713" y1="318.971" x2="299.22" y2="351.307" stroke="#333333" stroke-width="1.5" stroke-dasharray="3 3"/>
<line x1="185.287" y1="351.307" x2="195.793" y2="318.971" stroke="#333333" stroke-width="1.5" stroke-dasharray="3 3"/>
<rect x="226" y="300.203" width="32" height="7.5" rx="3.75" stroke="#333333" stroke-width="1.5" stroke-dasharray="3 3"/>
<path d="M2 291.203H483V308.203C483 312.621 479.418 316.203 475 316.203H10C5.58172 316.203 2 312.621 2 308.203V291.203Z" stroke="#333333" stroke-width="1.5" stroke-dasharray="3 3"/>
<path fill-rule="evenodd" clip-rule="evenodd" d="M1.25 290.703H2.75V292.203H2H1.25V290.703ZM1.25 287.703H2.75V284.703H1.25V287.703ZM1.25 281.703H2.75V278.703H1.25V281.703ZM1.25 275.703H2.75V272.703H1.25V275.703ZM1.25 269.703H2.75V266.703H1.25V269.703ZM1.25 263.703H2.75V260.703H1.25V263.703ZM1.25 257.703H2.75V254.703H1.25V257.703ZM1.25 251.703H2.75V248.703H1.25V251.703ZM1.25 245.703H2.75V242.703H1.25V245.703ZM1.25 239.703H2.75V236.703H1.25V239.703ZM1.25 233.703H2.75V230.703H1.25V233.703ZM1.25 227.703H2.75V224.703H1.25V227.703ZM1.25 221.703H2.75V218.703H1.25V221.703ZM1.25 215.703H2.75V212.703H1.25V215.703ZM1.25 209.703H2.75V206.703H1.25V209.703ZM1.25 203.703H2.75V200.703H1.25V203.703ZM1.25 197.703H2.75V194.703H1.25V197.703ZM1.25 191.703H2.75V188.703H1.25V191.703ZM1.25 185.703H2.75V182.703H1.25V185.703ZM1.25 179.703H2.75V176.703H1.25V179.703ZM1.25 173.703H2.75V170.703H1.25V173.703ZM1.25 167.703H2.75V164.703H1.25V167.703ZM1.25 161.703H2.75V158.703H1.25V161.703ZM1.25 155.703H2.75V152.703H1.25V155.703ZM1.25 149.703H2.75V146.703H1.25V149.703ZM1.25 143.703H2.75V140.703H1.25V143.703ZM1.25 137.703H2.75V134.703H1.25V137.703ZM1.25 131.703H2.75V128.703H1.25V131.703ZM1.25 125.703H2.75V122.703H1.25V125.703ZM1.25 119.703H2.75V116.703H1.25V119.703ZM1.25 113.703H2.75V110.703H1.25V113.703ZM1.25 107.703H2.75V104.703H1.25V107.703ZM1.25 101.703H2.75V98.7029H1.25V101.703ZM1.25 95.7029H2.75V92.7029H1.25V95.7029ZM1.25 89.7029H2.75V86.7029H1.25V89.7029ZM1.25 83.7029H2.75V80.7029H1.25V83.7029ZM1.25 77.7029H2.75V74.7029H1.25V77.7029ZM1.25 71.7029H2.75V68.7029H1.25V71.7029ZM1.25 65.7029H2.75V62.7029H1.25V65.7029ZM1.25 59.7029H2.75V56.7029H1.25V59.7029ZM1.25 53.7029H2.75V50.7029H1.25V53.7029ZM1.25 47.7029H2.75V44.7029H1.25V47.7029ZM1.25 41.7029H2.75V38.7029H1.25V41.7029ZM1.25 35.7029H2.75V32.7029H1.25V35.7029ZM1.25 29.7029H2.75V26.7029H1.25V29.7029ZM1.25 23.7029H2.75V20.7029H1.25V23.7029ZM1.25 17.7029H2.75V14.7029H1.25V17.7029ZM1.25 11.7029H2.75V10.2029C2.75 9.71773 2.79755 9.24443 2.88801 8.78714L1.41653 8.49604C1.3072 9.04868 1.25 9.61947 1.25 10.2029V11.7029ZM4.68217 5.27504C4.4222 5.55543 4.18414 5.85639 3.9707 6.1752L2.72425 5.34072C3.36285 4.38684 4.18396 3.56574 5.13783 2.92713L5.97231 4.17359C5.65099 4.38871 5.34779 4.62885 5.06552 4.89121C4.93303 5.01435 4.80515 5.14239 4.68217 5.27504ZM9.83665 2.95468C9.40851 2.96413 8.99007 3.01061 8.58426 3.09089L8.29315 1.61941C8.81125 1.51692 9.34531 1.46023 9.89076 1.45355C9.92712 1.4531 9.96354 1.45288 10 1.45288H11.4904V2.95288H10C9.9454 2.95288 9.89094 2.95348 9.83665 2.95468ZM14.4712 2.95288H17.4519V1.45288H14.4712V2.95288ZM20.4327 1.45288V2.95288H23.4135V1.45288H20.4327ZM26.3942 1.45288V2.95288H29.375V1.45288H26.3942ZM32.3558 1.45288V2.95288H35.3365V1.45288H32.3558ZM38.3173 1.45288V2.95288H41.2981V1.45288H38.3173ZM44.2789 1.45288V2.95288H47.2596V1.45288H44.2789ZM50.2404 1.45288V2.95288H53.2212V1.45288H50.2404ZM56.2019 1.45288V2.95288H59.1827V1.45288H56.2019ZM62.1635 1.45288V2.95288H65.1442V1.45288H62.1635ZM68.125 1.45288V2.95288H71.1058V1.45288H68.125ZM74.0865 1.45288V2.95288H77.0673V1.45288H74.0865ZM80.0481 1.45288V2.95288H83.0288V1.45288H80.0481ZM86.0096 1.45288V2.95288H88.9904V1.45288H86.0096ZM91.9711 1.45288V2.95288H94.9519V1.45288H91.9711ZM97.9327 1.45288V2.95288H100.913V1.45288H97.9327ZM103.894 1.45288V2.95288H106.875V1.45288H103.894ZM109.856 1.45288V2.95288H112.837V1.45288H109.856ZM115.817 1.45288V2.95288H118.798V1.45288H115.817ZM121.779 1.45288V2.95288H124.76V1.45288H121.779ZM127.74 1.45288V2.95288H130.721V1.45288H127.74ZM133.702 1.45288V2.95288H136.683V1.45288H133.702ZM139.663 1.45288V2.95288H142.644V1.45288H139.663ZM145.625 1.45288V2.95288H148.606V1.45288H145.625ZM151.587 1.45288V2.95288H154.567V1.45288H151.587ZM157.548 1.45288V2.95288H160.529V1.45288H157.548ZM163.51 1.45288V2.95288H166.49V1.45288H163.51ZM169.471 1.45288V2.95288H172.452V1.45288H169.471ZM175.433 1.45288V2.95288H178.413V1.45288H175.433ZM181.394 1.45288V2.95288H184.375V1.45288H181.394ZM187.356 1.45288V2.95288H190.337V1.45288H187.356ZM193.317 1.45288V2.95288H196.298V1.45288H193.317ZM199.279 1.45288V2.95288H202.26V1.45288H199.279ZM205.24 1.45288V2.95288H208.221V1.45288H205.24ZM211.202 1.45288V2.95288H214.183V1.45288H211.202ZM217.164 1.45288V2.95288H220.144V1.45288H217.164ZM223.125 1.45288V2.95288H226.106V1.45288H223.125ZM229.087 1.45288V2.95288H232.067V1.45288H229.087ZM235.048 1.45288V2.95288H238.029V1.45288H235.048ZM241.01 1.45288V2.95288H243.99V1.45288H241.01ZM246.971 1.45288V2.95288H249.952V1.45288H246.971ZM252.933 1.45288V2.95288H255.914V1.45288H252.933ZM258.894 1.45288V2.95288H261.875V1.45288H258.894ZM264.856 1.45288V2.95288H267.837V1.45288H264.856ZM270.817 1.45288V2.95288H273.798V1.45288H270.817ZM276.779 1.45288V2.95288H279.76V1.45288H276.779ZM282.741 1.45288V2.95288H285.721V1.45288H282.741ZM288.702 1.45288V2.95288H291.683V1.45288H288.702ZM294.664 1.45288V2.95288H297.644V1.45288H294.664ZM300.625 1.45288V2.95288H303.606V1.45288H300.625ZM306.587 1.45288V2.95288H309.568V1.45288H306.587ZM312.548 1.45288V2.95288H315.529V1.45288H312.548ZM318.51 1.45288V2.95288H321.491V1.45288H318.51ZM324.471 1.45288V2.95288H327.452V1.45288H324.471ZM330.433 1.45288V2.95288H333.414V1.45288H330.433ZM336.394 1.45288V2.95288H339.375V1.45288H336.394ZM342.356 1.45288V2.95288H345.337V1.45288H342.356ZM348.318 1.45288V2.95288H351.298V1.45288H348.318ZM354.279 1.45288V2.95288H357.26V1.45288H354.279ZM360.241 1.45288V2.95288H363.221V1.45288H360.241ZM366.202 1.45288V2.95288H369.183V1.45288H366.202ZM372.164 1.45288V2.95288H375.145V1.45288H372.164ZM378.125 1.45288V2.95288H381.106V1.45288H378.125ZM384.087 1.45288V2.95288H387.068V1.45288H384.087ZM390.048 1.45288V2.95288H393.029V1.45288H390.048ZM396.01 1.45288V2.95288H398.991V1.45288H396.01ZM401.971 1.45288V2.95288H404.952V1.45288H401.971ZM407.933 1.45288V2.95288H410.914V1.45288H407.933ZM413.895 1.45288V2.95288H416.875V1.45288H413.895ZM419.856 1.45288V2.95288H422.837V1.45288H419.856ZM425.818 1.45288V2.95288H428.798V1.45288H425.818ZM431.779 1.45288V2.95288H434.76V1.45288H431.779ZM437.741 1.45288V2.95288H440.722V1.45288H437.741ZM443.702 1.45288V2.95288H446.683V1.45288H443.702ZM449.664 1.45288V2.95288H452.645V1.45288H449.664ZM455.625 1.45288V2.95288H458.606V1.45288H455.625ZM461.587 1.45288V2.95288H464.568V1.45288H461.587ZM467.549 1.45288V2.95288H470.529V1.45288H467.549ZM473.51 1.45288V2.95288H475C475.061 2.95288 475.121 2.95362 475.181 2.9551C475.603 2.96544 476.016 3.01174 476.416 3.09089L476.707 1.61941C476.286 1.53613 475.854 1.4831 475.415 1.46256C475.277 1.45613 475.139 1.45288 475 1.45288H473.51ZM479.071 4.20292C479.057 4.19309 479.042 4.18331 479.028 4.17358L479.862 2.92713C480.101 3.08678 480.331 3.25784 480.552 3.43953C481.215 3.98459 481.797 4.62531 482.276 5.34072L481.029 6.1752C480.51 5.39878 479.844 4.72817 479.071 4.20292ZM482.25 10.2029C482.25 9.71773 482.202 9.24442 482.112 8.78714L483.583 8.49603C483.693 9.04867 483.75 9.61947 483.75 10.2029V11.7029H482.25V10.2029ZM482.25 14.7029V17.7029H483.75V14.7029H482.25ZM483.75 20.7029H482.25V23.7029H483.75V20.7029ZM483.75 26.7029H482.25V29.7029H483.75V26.7029ZM483.75 32.7029H482.25V35.7029H483.75V32.7029ZM483.75 38.7029H482.25V41.7029H483.75V38.7029ZM483.75 44.7029H482.25V47.7029H483.75V44.7029ZM483.75 50.7029H482.25V53.7029H483.75V50.7029ZM483.75 56.7029H482.25V59.7029H483.75V56.7029ZM483.75 62.7029H482.25V65.7029H483.75V62.7029ZM483.75 68.7029H482.25V71.7029H483.75V68.7029ZM483.75 74.7029H482.25V77.7029H483.75V74.7029ZM483.75 80.7029H482.25V83.7029H483.75V80.7029ZM483.75 86.7029H482.25V89.7029H483.75V86.7029ZM483.75 92.7029H482.25V95.7029H483.75V92.7029ZM483.75 98.7029H482.25V101.703H483.75V98.7029ZM483.75 104.703H482.25V107.703H483.75V104.703ZM483.75 110.703H482.25V113.703H483.75V110.703ZM483.75 116.703H482.25V119.703H483.75V116.703ZM483.75 122.703H482.25V125.703H483.75V122.703ZM483.75 128.703H482.25V131.703H483.75V128.703ZM483.75 134.703H482.25V137.703H483.75V134.703ZM483.75 140.703H482.25V143.703H483.75V140.703ZM483.75 146.703H482.25V149.703H483.75V146.703ZM483.75 152.703H482.25V155.703H483.75V152.703ZM483.75 158.703H482.25V161.703H483.75V158.703ZM483.75 164.703H482.25V167.703H483.75V164.703ZM483.75 170.703H482.25V173.703H483.75V170.703ZM483.75 176.703H482.25V179.703H483.75V176.703ZM483.75 182.703H482.25V185.703H483.75V182.703ZM483.75 188.703H482.25V191.703H483.75V188.703ZM483.75 194.703H482.25V197.703H483.75V194.703ZM483.75 200.703H482.25V203.703H483.75V200.703ZM483.75 206.703H482.25V209.703H483.75V206.703ZM483.75 212.703H482.25V215.703H483.75V212.703ZM483.75 218.703H482.25V221.703H483.75V218.703ZM483.75 224.703H482.25V227.703H483.75V224.703ZM483.75 230.703H482.25V233.703H483.75V230.703ZM483.75 236.703H482.25V239.703H483.75V236.703ZM483.75 242.703H482.25V245.703H483.75V242.703ZM483.75 248.703H482.25V251.703H483.75V248.703ZM483.75 254.703H482.25V257.703H483.75V254.703ZM483.75 260.703H482.25V263.703H483.75V260.703ZM483.75 266.703H482.25V269.703H483.75V266.703ZM483.75 272.703H482.25V275.703H483.75V272.703ZM483.75 278.703H482.25V281.703H483.75V278.703ZM483.75 284.703H482.25V287.703H483.75V284.703ZM483.75 290.703H482.25V292.203H483H483.75V290.703Z" fill="#333333"/>
<rect width="449" height="258" transform="translate(18 18.2029)" fill="#111111"/>
</svg>
