<svg width="539" height="371" viewBox="0 0 539 371" fill="none" xmlns="http://www.w3.org/2000/svg">
<path d="M2 344.315C2 343.224 2.88415 342.34 3.9748 342.34H534.287C535.378 342.34 536.262 343.224 536.262 344.315V344.315C536.262 357.948 525.21 369 511.577 369H26.685C13.0519 369 2 357.948 2 344.315V344.315Z" stroke="#333333" stroke-width="1.5" stroke-dasharray="3 3"/>
<rect x="479.744" y="351.699" width="17.0623" height="7.99793" rx="3.99897" stroke="#333333" stroke-width="1.5" stroke-dasharray="3 3"/>
<rect x="455.216" y="351.699" width="17.0623" height="7.99793" rx="3.99897" stroke="#333333" stroke-width="1.5" stroke-dasharray="3 3"/>
<rect x="430.69" y="351.699" width="17.0623" height="7.99793" rx="3.99897" stroke="#333333" stroke-width="1.5" stroke-dasharray="3 3"/>
<path fill-rule="evenodd" clip-rule="evenodd" d="M204.476 344.695C204.398 344.097 204.357 343.487 204.357 342.868H205.107H205.857C205.857 343.422 205.893 343.967 205.963 344.501L204.476 344.695ZM207.249 351.389C206.509 350.426 205.892 349.364 205.42 348.226L206.805 347.651C207.226 348.667 207.778 349.615 208.439 350.475L207.249 351.389ZM212.996 355.802C211.857 355.33 210.795 354.712 209.832 353.972L210.746 352.783C211.607 353.444 212.555 353.995 213.57 354.416L212.996 355.802ZM217.888 356.857C217.429 356.842 216.974 356.804 216.526 356.746L216.72 355.259C217.188 355.32 217.664 355.355 218.146 355.363C218.215 355.364 218.284 355.364 218.353 355.364H219.835V356.864H218.353C218.198 356.864 218.043 356.862 217.888 356.857ZM222.799 356.864H225.764V355.364H222.799V356.864ZM228.728 355.364V356.864H231.692V355.364H228.728ZM234.656 355.364V356.864H237.62V355.364H234.656ZM240.584 355.364V356.864H243.548V355.364H240.584ZM246.512 355.364V356.864H249.476V355.364H246.512ZM252.44 355.364V356.864H255.404V355.364H252.44ZM258.368 355.364V356.864H261.332V355.364H258.368ZM264.296 355.364V356.864H267.26V355.364H264.296ZM270.224 355.364V356.864H273.188V355.364H270.224ZM276.152 355.364V356.864H279.116V355.364H276.152ZM282.08 355.364V356.864H285.044V355.364H282.08ZM288.008 355.364V356.864H290.972V355.364H288.008ZM293.936 355.364V356.864H296.9V355.364H293.936ZM299.864 355.364V356.864H302.828V355.364H299.864ZM305.792 355.364V356.864H308.756V355.364H305.792ZM311.72 355.364V356.864H314.684V355.364H311.72ZM317.648 355.364V356.864H319.13C319.594 356.864 320.054 356.842 320.507 356.797C320.658 356.783 320.808 356.766 320.957 356.746L320.763 355.259C320.644 355.274 320.524 355.288 320.403 355.3C319.985 355.343 319.56 355.364 319.13 355.364H317.648ZM327.651 353.972C326.689 354.712 325.626 355.33 324.488 355.802L323.914 354.416C324.929 353.995 325.877 353.444 326.737 352.783L327.651 353.972ZM332.064 348.226C331.592 349.364 330.974 350.426 330.235 351.389L329.045 350.475C329.706 349.615 330.257 348.667 330.679 347.651L332.064 348.226ZM333.066 344.174C333.05 344.348 333.031 344.522 333.008 344.695L331.521 344.501C331.538 344.368 331.554 344.233 331.567 344.099C331.606 343.694 331.626 343.284 331.626 342.868H332.376H333.126C333.126 343.308 333.106 343.744 333.066 344.174Z" fill="#333333"/>
<rect width="2" height="1.74" transform="matrix(-1 0 0 -1 301.107 344.968)" fill="black"/>
<rect width="2" height="1.74" transform="matrix(-1 0 0 -1 206.107 344.968)" fill="black"/>
<path fill-rule="evenodd" clip-rule="evenodd" d="M22.3945 337.484H23.8945V338.98H23.1445H22.3945V337.484ZM22.3945 334.494H23.8945V331.503H22.3945V334.494ZM22.3945 328.512H23.8945V325.521H22.3945V328.512ZM22.3945 322.531H23.8945V319.54H22.3945V322.531ZM22.3945 316.549H23.8945V313.559H22.3945V316.549ZM22.3945 310.568H23.8945V307.577H22.3945V310.568ZM22.3945 304.586H23.8945V301.596H22.3945V304.586ZM22.3945 298.605H23.8945V295.614H22.3945V298.605ZM22.3945 292.623H23.8945V289.633H22.3945V292.623ZM22.3945 286.642H23.8945V283.651H22.3945V286.642ZM22.3945 280.661H23.8945V277.67H22.3945V280.661ZM22.3945 274.679H23.8945V271.688H22.3945V274.679ZM22.3945 268.698H23.8945V265.707H22.3945V268.698ZM22.3945 262.716H23.8945V259.726H22.3945V262.716ZM22.3945 256.735H23.8945V253.744H22.3945V256.735ZM22.3945 250.753H23.8945V247.763H22.3945V250.753ZM22.3945 244.772H23.8945V241.781H22.3945V244.772ZM22.3945 238.79H23.8945V235.8H22.3945V238.79ZM22.3945 232.809H23.8945V229.818H22.3945V232.809ZM22.3945 226.828H23.8945V223.837H22.3945V226.828ZM22.3945 220.846H23.8945V217.855H22.3945V220.846ZM22.3945 214.865H23.8945V211.874H22.3945V214.865ZM22.3945 208.883H23.8945V205.893H22.3945V208.883ZM22.3945 202.902H23.8945V199.911H22.3945V202.902ZM22.3945 196.92H23.8945V193.93H22.3945V196.92ZM22.3945 190.939H23.8945V187.948H22.3945V190.939ZM22.3945 184.957H23.8945V181.967H22.3945V184.957ZM22.3945 178.976H23.8945V175.985H22.3945V178.976ZM22.3945 172.995H23.8945V170.004H22.3945V172.995ZM22.3945 167.013H23.8945V164.022H22.3945V167.013ZM22.3945 161.032H23.8945V158.041H22.3945V161.032ZM22.3945 155.05H23.8945V152.06H22.3945V155.05ZM22.3945 149.069H23.8945V146.078H22.3945V149.069ZM22.3945 143.087H23.8945V140.097H22.3945V143.087ZM22.3945 137.106H23.8945V134.115H22.3945V137.106ZM22.3945 131.124H23.8945V128.134H22.3945V131.124ZM22.3945 125.143H23.8945V122.152H22.3945V125.143ZM22.3945 119.162H23.8945V116.171H22.3945V119.162ZM22.3945 113.18H23.8945V110.189H22.3945V113.18ZM22.3945 107.199H23.8945V104.208H22.3945V107.199ZM22.3945 101.217H23.8945V98.2265H22.3945V101.217ZM22.3945 95.2358H23.8945V92.2451H22.3945V95.2358ZM22.3945 89.2543H23.8945V86.2636H22.3945V89.2543ZM22.3945 83.2729H23.8945V80.2822H22.3945V83.2729ZM22.3945 77.2914H23.8945V74.3007H22.3945V77.2914ZM22.3945 71.31H23.8945V68.3193H22.3945V71.31ZM22.3945 65.3285H23.8945V62.3378H22.3945V65.3285ZM22.3945 59.3471H23.8945V56.3564H22.3945V59.3471ZM22.3945 53.3657H23.8945V50.3749H22.3945V53.3657ZM22.3945 47.3842H23.8945V44.3935H22.3945V47.3842ZM22.3945 41.4028H23.8945V38.412H22.3945V41.4028ZM22.3945 35.4213H23.8945V32.4306H22.3945V35.4213ZM22.3945 29.4399H23.8945V26.4492H22.3945V29.4399ZM22.3945 23.4584H23.8945V20.4677H22.3945V23.4584ZM22.3945 17.477H23.8945V14.4863H22.3945V17.477ZM22.3945 11.4955H23.8945V10C23.8945 9.96967 23.8947 9.9394 23.8951 9.90917C23.9006 9.45574 23.9477 9.01296 24.0325 8.58425L22.5611 8.29315C22.4641 8.78339 22.4081 9.28791 22.3967 9.80286C22.3953 9.86841 22.3945 9.93412 22.3945 10V11.4955ZM26.2824 2.72425L27.1168 3.9707C26.3259 4.50023 25.6448 5.18137 25.1152 5.97231L23.8688 5.13783C24.1482 4.72051 24.4625 4.3286 24.8076 3.96627C24.8382 3.93415 24.869 3.90226 24.9001 3.87061C24.9441 3.82575 24.9886 3.78137 25.0336 3.73746C25.0824 3.68988 25.1317 3.64286 25.1815 3.59642C25.524 3.27741 25.8921 2.98555 26.2824 2.72425ZM30.9812 2.7518C30.553 2.76125 30.1346 2.80773 29.7288 2.88801L29.4377 1.41653C29.9558 1.31404 30.4898 1.25735 31.0353 1.25067C31.0717 1.25022 31.1081 1.25 31.1445 1.25H32.653V2.75H31.1445C31.0899 2.75 31.0355 2.7506 30.9812 2.7518ZM35.6699 2.75H38.6868V1.25H35.6699V2.75ZM41.7037 1.25V2.75H44.7207V1.25H41.7037ZM47.7376 1.25V2.75H50.7545V1.25H47.7376ZM53.7714 1.25V2.75H56.7883V1.25H53.7714ZM59.8053 1.25V2.75H62.8222V1.25H59.8053ZM65.8391 1.25V2.75H68.856V1.25H65.8391ZM71.8729 1.25V2.75H74.8898V1.25H71.8729ZM77.9068 1.25V2.75H80.9237V1.25H77.9068ZM83.9406 1.25V2.75H86.9575V1.25H83.9406ZM89.9744 1.25V2.75H92.9914V1.25H89.9744ZM96.0083 1.25V2.75H99.0252V1.25H96.0083ZM102.042 1.25V2.75H105.059V1.25H102.042ZM108.076 1.25V2.75H111.093V1.25H108.076ZM114.11 1.25V2.75H117.127V1.25H114.11ZM120.144 1.25V2.75H123.161V1.25H120.144ZM126.177 1.25V2.75H129.194V1.25H126.177ZM132.211 1.25V2.75H135.228V1.25H132.211ZM138.245 1.25V2.75H141.262V1.25H138.245ZM144.279 1.25V2.75H147.296V1.25H144.279ZM150.313 1.25V2.75H153.33V1.25H150.313ZM156.347 1.25V2.75H159.364V1.25H156.347ZM162.381 1.25V2.75H165.397V1.25H162.381ZM168.414 1.25V2.75H171.431V1.25H168.414ZM174.448 1.25V2.75H177.465V1.25H174.448ZM180.482 1.25V2.75H183.499V1.25H180.482ZM186.516 1.25V2.75H189.533V1.25H186.516ZM192.55 1.25V2.75H195.567V1.25H192.55ZM198.584 1.25V2.75H201.601V1.25H198.584ZM204.617 1.25V2.75H207.634V1.25H204.617ZM210.651 1.25V2.75H213.668V1.25H210.651ZM216.685 1.25V2.75H219.702V1.25H216.685ZM222.719 1.25V2.75H225.736V1.25H222.719ZM228.753 1.25V2.75H231.77V1.25H228.753ZM234.787 1.25V2.75H237.804V1.25H234.787ZM240.821 1.25V2.75H243.837V1.25H240.821ZM246.854 1.25V2.75H249.871V1.25H246.854ZM252.888 1.25V2.75H255.905V1.25H252.888ZM258.922 1.25V2.75H261.939V1.25H258.922ZM264.956 1.25V2.75H267.973V1.25H264.956ZM270.99 1.25V2.75H274.007V1.25H270.99ZM277.024 1.25V2.75H280.04V1.25H277.024ZM283.057 1.25V2.75H286.074V1.25H283.057ZM289.091 1.25V2.75H292.108V1.25H289.091ZM295.125 1.25V2.75H298.142V1.25H295.125ZM301.159 1.25V2.75H304.176V1.25H301.159ZM307.193 1.25V2.75H310.21V1.25H307.193ZM313.227 1.25V2.75H316.243V1.25H313.227ZM319.26 1.25V2.75H322.277V1.25H319.26ZM325.294 1.25V2.75H328.311V1.25H325.294ZM331.328 1.25V2.75H334.345V1.25H331.328ZM337.362 1.25V2.75H340.379V1.25H337.362ZM343.396 1.25V2.75H346.413V1.25H343.396ZM349.429 1.25V2.75H352.446V1.25H349.429ZM355.463 1.25V2.75H358.48V1.25H355.463ZM361.497 1.25V2.75H364.514V1.25H361.497ZM367.531 1.25V2.75H370.548V1.25H367.531ZM373.565 1.25V2.75H376.582V1.25H373.565ZM379.598 1.25V2.75H382.615V1.25H379.598ZM385.632 1.25V2.75H388.649V1.25H385.632ZM391.666 1.25V2.75H394.683V1.25H391.666ZM397.7 1.25V2.75H400.717V1.25H397.7ZM403.734 1.25V2.75H406.751V1.25H403.734ZM409.768 1.25V2.75H412.784V1.25H409.768ZM415.801 1.25V2.75H418.818V1.25H415.801ZM421.835 1.25V2.75H424.852V1.25H421.835ZM427.869 1.25V2.75H430.886V1.25H427.869ZM433.903 1.25V2.75H436.92V1.25H433.903ZM439.937 1.25V2.75H442.954V1.25H439.937ZM445.97 1.25V2.75H448.987V1.25H445.97ZM452.004 1.25V2.75H455.021V1.25H452.004ZM458.038 1.25V2.75H461.055V1.25H458.038ZM464.072 1.25V2.75H467.089V1.25H464.072ZM470.106 1.25V2.75H473.123V1.25H470.106ZM476.139 1.25V2.75H479.156V1.25H476.139ZM482.173 1.25V2.75H485.19V1.25H482.173ZM488.207 1.25V2.75H491.224V1.25H488.207ZM494.241 1.25V2.75H497.258V1.25H494.241ZM500.275 1.25V2.75H503.292V1.25H500.275ZM506.309 1.25V2.75H507.818C507.878 2.75 507.939 2.75074 507.999 2.75222C508.421 2.76256 508.833 2.80886 509.233 2.88801L509.524 1.41653C509.104 1.33325 508.672 1.28022 508.232 1.25967C508.095 1.25325 507.957 1.25 507.818 1.25H506.309ZM511.889 4.00004C511.874 3.99021 511.86 3.98043 511.845 3.9707L512.68 2.72425C512.918 2.8839 513.148 3.05496 513.37 3.23664C514.033 3.7817 514.614 4.42243 515.093 5.13783L513.847 5.97231C513.327 5.1959 512.661 4.52529 511.889 4.00004ZM515.068 10C515.068 9.51485 515.02 9.04154 514.93 8.58426L516.401 8.29315C516.51 8.84579 516.568 9.41659 516.568 10V11.4954H515.068V10ZM515.068 14.4861V17.4768H516.568V14.4861H515.068ZM516.568 20.4675H515.068V23.4583H516.568V20.4675ZM516.568 26.449H515.068V29.4397H516.568V26.449ZM516.568 32.4304H515.068V35.4212H516.568V32.4304ZM516.568 38.4119H515.068V41.4026H516.568V38.4119ZM516.568 44.3933H515.068V47.3841H516.568V44.3933ZM516.568 50.3748H515.068V53.3655H516.568V50.3748ZM516.568 56.3562H515.068V59.3469H516.568V56.3562ZM516.568 62.3377H515.068V65.3284H516.568V62.3377ZM516.568 68.3191H515.068V71.3098H516.568V68.3191ZM516.568 74.3006H515.068V77.2913H516.568V74.3006ZM516.568 80.282H515.068V83.2727H516.568V80.282ZM516.568 86.2635H515.068V89.2542H516.568V86.2635ZM516.568 92.2449H515.068V95.2356H516.568V92.2449ZM516.568 98.2263H515.068V101.217H516.568V98.2263ZM516.568 104.208H515.068V107.199H516.568V104.208ZM516.568 110.189H515.068V113.18H516.568V110.189ZM516.568 116.171H515.068V119.161H516.568V116.171ZM516.568 122.152H515.068V125.143H516.568V122.152ZM516.568 128.134H515.068V131.124H516.568V128.134ZM516.568 134.115H515.068V137.106H516.568V134.115ZM516.568 140.096H515.068V143.087H516.568V140.096ZM516.568 146.078H515.068V149.069H516.568V146.078ZM516.568 152.059H515.068V155.05H516.568V152.059ZM516.568 158.041H515.068V161.032H516.568V158.041ZM516.568 164.022H515.068V167.013H516.568V164.022ZM516.568 170.004H515.068V172.994H516.568V170.004ZM516.568 175.985H515.068V178.976H516.568V175.985ZM516.568 181.967H515.068V184.957H516.568V181.967ZM516.568 187.948H515.068V190.939H516.568V187.948ZM516.568 193.929H515.068V196.92H516.568V193.929ZM516.568 199.911H515.068V202.902H516.568V199.911ZM516.568 205.892H515.068V208.883H516.568V205.892ZM516.568 211.874H515.068V214.865H516.568V211.874ZM516.568 217.855H515.068V220.846H516.568V217.855ZM516.568 223.837H515.068V226.827H516.568V223.837ZM516.568 229.818H515.068V232.809H516.568V229.818ZM516.568 235.8H515.068V238.79H516.568V235.8ZM516.568 241.781H515.068V244.772H516.568V241.781ZM516.568 247.762H515.068V250.753H516.568V247.762ZM516.568 253.744H515.068V256.735H516.568V253.744ZM516.568 259.725H515.068V262.716H516.568V259.725ZM516.568 265.707H515.068V268.698H516.568V265.707ZM516.568 271.688H515.068V274.679H516.568V271.688ZM516.568 277.67H515.068V280.66H516.568V277.67ZM516.568 283.651H515.068V286.642H516.568V283.651ZM516.568 289.633H515.068V292.623H516.568V289.633ZM516.568 295.614H515.068V298.605H516.568V295.614ZM516.568 301.595H515.068V304.586H516.568V301.595ZM516.568 307.577H515.068V310.568H516.568V307.577ZM516.568 313.558H515.068V316.549H516.568V313.558ZM516.568 319.54H515.068V322.531H516.568V319.54ZM516.568 325.521H515.068V328.512H516.568V325.521ZM516.568 331.503H515.068V334.493H516.568V331.503ZM516.568 337.484H515.068V338.98H515.818H516.568V337.484Z" fill="#333333"/>
</svg>
