<svg width="652" height="673" viewBox="0 0 652 673" fill="none" xmlns="http://www.w3.org/2000/svg">
<g clip-path="url(#clip0_218_4608)">
<path d="M420.56 390.648C510.306 235.203 540.724 84.7467 488.499 54.5948C436.274 24.4428 321.184 126.013 231.438 281.458C141.691 436.903 111.274 587.359 163.499 617.511C215.724 647.663 330.814 546.093 420.56 390.648Z" stroke="#333333" stroke-width="1.5" stroke-dasharray="3 3"/>
<path d="M231.44 390.648C321.186 546.093 436.276 647.663 488.501 617.511C540.726 587.359 510.309 436.903 420.562 281.458C330.816 126.013 215.726 24.4428 163.501 54.5948C111.276 84.7467 141.694 235.203 231.44 390.648Z" stroke="#333333" stroke-width="1.5" stroke-dasharray="3 3"/>
<path d="M326 445.243C505.493 445.243 651 396.357 651 336.053C651 275.749 505.493 226.863 326 226.863C146.507 226.863 1 275.749 1 336.053C1 396.357 146.507 445.243 326 445.243Z" stroke="#333333" stroke-width="1.5" stroke-dasharray="3 3"/>
<path d="M326.969 394.677C359.604 394.677 386.06 368.221 386.06 335.586C386.06 302.951 359.604 276.495 326.969 276.495C294.334 276.495 267.878 302.951 267.878 335.586C267.878 368.221 294.334 394.677 326.969 394.677Z" stroke="#333333" stroke-width="1.5" stroke-dasharray="3 3"/>
</g>
<defs>
<clipPath id="clip0_218_4608">
<rect width="652" height="673" fill="white"/>
</clipPath>
</defs>
</svg>
